<?xml version="1.0" encoding="UTF-8" standalone="no"?>
<!-- Created with Inkscape (http://www.inkscape.org/) -->

<svg
   width="200"
   height="200"
   viewBox="0 0 200 200"
   version="1.1"
   id="svg5"
   sodipodi:docname="github profile pic_erl.svg"
   inkscape:version="1.2.2 (732a01da63, 2022-12-09)"
   xmlns:inkscape="http://www.inkscape.org/namespaces/inkscape"
   xmlns:sodipodi="http://sodipodi.sourceforge.net/DTD/sodipodi-0.dtd"
   xmlns="http://www.w3.org/2000/svg"
   xmlns:svg="http://www.w3.org/2000/svg">
  <sodipodi:namedview
     id="namedview173"
     pagecolor="#ffffff"
     bordercolor="#000000"
     borderopacity="0.25"
     inkscape:showpageshadow="2"
     inkscape:pageopacity="0.0"
     inkscape:pagecheckerboard="0"
     inkscape:deskcolor="#d1d1d1"
     showgrid="false"
     inkscape:zoom="3.6557421"
     inkscape:cx="105.177"
     inkscape:cy="96.560423"
     inkscape:window-width="1366"
     inkscape:window-height="697"
     inkscape:window-x="-8"
     inkscape:window-y="-8"
     inkscape:window-maximized="1"
     inkscape:current-layer="svg5" />
  <defs
     id="defs2" />
  <g
     id="layer1"
     transform="translate(3647.7948,-98.922555)">
    <g
       id="g7647"
       transform="matrix(3.7795276,0,0,3.7795276,1403.6125,-1608.3126)">
      <g
         id="g11477"
         transform="translate(-240.39989)">
        <rect
           y="451.70596"
           x="-1096.1183"
           height="52.916668"
           width="52.916668"
           id="rect7324-4"
           style="fill:#0097e8;stroke-width:2.42812;stroke-linecap:square;-inkscape-stroke:none;paint-order:fill markers stroke"
           rx="6.8791666"
           ry="6.8791666" />
        <g
           id="g7374-1-7"
           transform="matrix(1.9479065,0,0,1.9491129,966.48124,-4483.0266)"
           style="stroke-width:0.710933">
          <g
             id="g7372-1-6"
             transform="matrix(0.96592583,-0.25865884,0.25897935,0.96592583,-694.71834,-183.69787)">
            <g
               id="g7330-5-2">
              <path
                 id="path7326-7-6"
                 style="fill:#ffffff;stroke-width:0.603786;stroke-linecap:round;stroke-linejoin:round;paint-order:fill markers stroke"
                 d="m -1048.1019,2542.6835 v 2.3994 l -2.7456,5.1304 h 5.3945 5.394 l -2.7456,-5.1304 v -0.9354 c -0.027,0 -0.016,-3.7372 -0.3723,-3.7422 -2.3123,-0.4848 -5.0554,-1.9099 -4.9249,2.2782 z" />
              <path
                 style="color:#000000;fill:#1a1a1a;stroke-linecap:round;stroke-linejoin:round;-inkscape-stroke:none;paint-order:fill markers stroke"
                 d="m -1047.6777,2539.5449 c -0.2039,0.018 -0.431,0.1255 -0.5586,0.3223 -0.1276,0.1968 -0.168,0.4367 -0.168,0.7402 v 4.4004 l -2.709,5.0625 a 0.30192319,0.30192319 0 0 0 0.2656,0.4453 h 5.3946 5.3945 a 0.30192319,0.30192319 0 0 0 0.2656,-0.4453 l -2.709,-5.0625 v -4.4004 c 0,-0.4047 -0.081,-0.7243 -0.3242,-0.914 -0.2432,-0.1897 -0.5374,-0.1695 -0.8066,-0.1211 -0.5384,0.097 -1.1601,0.3476 -1.8203,0.3476 -0.4127,0 -0.8167,-0.095 -1.1875,-0.1933 -0.3708,-0.098 -0.6972,-0.2113 -1.0371,-0.1817 z m 0.053,0.6016 c 0.1351,-0.012 0.4501,0.063 0.8301,0.164 0.38,0.1008 0.8372,0.2129 1.3418,0.2129 0.8072,0 1.5088,-0.2822 1.9277,-0.3574 0.2095,-0.038 0.3041,-0.015 0.3281,0 0.024,0.019 0.09,0.1144 0.09,0.4375 v 4.4746 a 0.30192319,0.30192319 0 0 0 0.037,0.1426 l 2.5098,4.6875 h -4.8926 -4.8926 l 2.5098,-4.6875 a 0.30192319,0.30192319 0 0 0 0.035,-0.1426 v -4.4746 c 0,-0.2423 0.044,-0.3709 0.07,-0.4121 0.027,-0.041 0.024,-0.042 0.1055,-0.049 z"
                 id="path7328-0-8" />
            </g>
            <g
               style="stroke-width:1.42951"
               id="g7370-1-6"
               transform="matrix(1.0685943,0,0,1.0599123,-121.29335,380.1846)">
              <g
                 id="g7360-7-7"
                 transform="translate(211.62566,320.71664)">
                <g
                   id="g7340-7-8">
                  <path
                     id="path7332-3-9"
                     d="m -1078.748,1719.8208 -0.1919,1.9899 -2.569,4.8407 h 10.0942 l -2.5679,-4.8391 v -0.884 c -1.6182,0.1105 -3.2111,-0.1873 -4.7654,-1.1075 z"
                     style="fill:#ffcd3c;stroke-width:0.567338;stroke-linecap:round;stroke-linejoin:round;paint-order:fill markers stroke" />
                  <path
                     transform="matrix(0.3818388,0,0,0.38496653,907.53065,2678.2862)"
                     d="m -5205.7199,-2478.3259 -3.3875,6.3318 h 26.4355 l -3.392,-6.3391 z"
                     style="fill:#ffcd3c;stroke-width:1.47976;stroke-linecap:round;stroke-linejoin:round;paint-order:fill markers stroke"
                     id="path7334-0-0" />
                  <ellipse
                     style="fill:#ffcd3c;stroke-width:0.567338;stroke-linecap:round;stroke-linejoin:round;paint-order:fill markers stroke"
                     id="ellipse7336-4-7"
                     cx="-1076.4609"
                     cy="1724.2797"
                     rx="3.7890117"
                     ry="0.48828831" />
                  <path
                     id="path7338-7-8"
                     style="fill:#ff9234;stroke-width:0.272572px"
                     d="m -1079.9811,1723.7722 -1.5279,2.8792 h 8.0616 c -0.1007,-0.037 -0.1913,-0.074 -0.3006,-0.1105 -3.1795,-1.0708 -5.0859,-2.0254 -6.2331,-2.7687 z" />
                </g>
                <g
                   transform="translate(40.887877,73.951002)"
                   id="g7358-7-4">
                  <g
                     id="path7342-3-4"
                     transform="matrix(0.26458333,0,0,0.26458333,-9.3265735,-3.3072979)">
                    <path
                       style="color:#000000;fill:#ffcd3c;stroke-width:3.16812;-inkscape-stroke:none;paint-order:fill markers stroke"
                       d="m -4195.5742,6221.9544 c -1.0083,0.089 -1.5957,0.7683 -1.5957,2.7149 v 15.9621 l -9.7097,18.2955 h 19.0788 19.0789 l -9.7117,-18.2955 v -15.9621 c 0,-5.1908 -4.1768,-1.3692 -9.3672,-1.3692 -3.244,0 -6.093,-1.4934 -7.7734,-1.3457 z"
                       id="path564" />
                    <path
                       style="color:#000000;fill:#1a1a1a;-inkscape-stroke:none;paint-order:fill markers stroke"
                       d="m -4179.8359,6220.373 c -0.5598,-0.055 -1.115,0.015 -1.6172,0.1055 -2.0088,0.3637 -4.1413,1.2383 -6.3477,1.2383 -1.3789,0 -2.7609,-0.3274 -4.0644,-0.6758 -1.3036,-0.3484 -2.4658,-0.7855 -3.8477,-0.664 -0.8289,0.073 -1.834,0.5487 -2.3691,1.3808 -0.5352,0.8321 -0.6719,1.7795 -0.6719,2.9121 v 15.5664 l -10.7598,20.2754 h 21.7129 21.7129 l -10.7617,-20.2754 v -15.5664 c 0,-1.5101 -0.291,-2.8271 -1.3379,-3.6504 -0.5235,-0.4116 -1.0886,-0.5914 -1.6484,-0.6465 z m -0.3106,3.1368 c -0.1016,-0.08 0.1289,0.075 0.1289,1.1601 v 16.3555 l 8.6621,16.3183 h -16.4453 -16.4453 l 8.6602,-16.3183 v -16.3555 c 0,-0.7715 0.1364,-1.0843 0.1601,-1.1347 0.3032,-0.024 1.395,0.2063 2.7422,0.5664 1.352,0.3613 3.0177,0.7832 4.8828,0.7832 2.984,0 5.5349,-1.0378 6.9121,-1.2871 0.6886,-0.1247 0.8438,-0.01 0.7422,-0.088 z"
                       id="path566" />
                  </g>
                  <g
                     id="g7348-7-6"
                     transform="translate(0.0361786,-0.6085654)">
                    <g
                       transform="translate(-12.104706,-71.565609)"
                       id="g7346-2-2">
                      <g
                         transform="translate(-1.2567708)"
                         id="g7344-9-1" />
                    </g>
                  </g>
                  <g
                     transform="translate(1.5594506e-4,0.28329515)"
                     id="g7356-3-9">
                    <g
                       id="g7354-2-5">
                      <rect
                         ry="0.65993249"
                         rx="0.65993249"
                         y="1113.918"
                         x="1642.5143"
                         height="6.8620605"
                         width="1.319865"
                         id="rect7350-7-1"
                         style="fill:#ffffff;stroke-width:0.655464;stroke-linecap:round;stroke-linejoin:round;paint-order:fill markers stroke"
                         transform="rotate(90)" />
                      <g
                         id="path7352-3-6">
                        <path
                           style="color:#000000;fill:#ffffff;stroke-width:0.83827;stroke-linecap:round;-inkscape-stroke:none;paint-order:fill markers stroke"
                           d="m -1119.8257,1643.8602 -0.2944,-0.026 c -0.3642,-0.032 -0.6599,-0.2943 -0.6599,-0.6599 0,-0.3656 0.2943,-0.6599 0.6599,-0.6599 h 5.5422 c 0.3656,0 0.6599,0.2943 0.6599,0.6599 0,0.3656 -0.2943,0.6599 -0.6599,0.6599 h -2.3411"
                           id="path572" />
                        <path
                           style="color:#000000;fill:#1a1a1a;stroke-linecap:round;-inkscape-stroke:none;paint-order:fill markers stroke"
                           d="m -1120.1191,1642.0957 c -0.5906,0 -1.0801,0.4876 -1.0801,1.0781 0,0.5916 0.4995,1.0304 1.0429,1.0782 l 0.293,0.025 a 0.419135,0.419135 0 0 0 0.4551,-0.3808 0.419135,0.419135 0 0 0 -0.3809,-0.4531 l -0.2949,-0.027 c -0.185,-0.016 -0.2773,-0.1026 -0.2773,-0.2422 0,-0.1406 0.1015,-0.2402 0.2422,-0.2402 h 5.541 c 0.1406,0 0.2402,0.1 0.2402,0.2402 0,0.1407 -0.1,0.2422 -0.2402,0.2422 h -2.3418 a 0.419135,0.419135 0 0 0 -0.418,0.418 0.419135,0.419135 0 0 0 0.418,0.4199 h 2.3418 c 0.5905,0 1.0801,-0.4895 1.0801,-1.0801 0,-0.5905 -0.4896,-1.0781 -1.0801,-1.0781 z"
                           id="path574" />
                      </g>
                    </g>
                  </g>
                </g>
              </g>
              <g
                 id="g7368-9-1"
                 transform="matrix(1.4431703,0,0,1.4549916,1119.1563,2999.5643)">
                <path
                   style="color:#000000;fill:#1a1a1a;stroke-linecap:round;stroke-linejoin:round;-inkscape-stroke:none;paint-order:fill markers stroke"
                   d="m -1105.8359,1721.6816 a 0.2725715,0.2725715 0 0 0 -0.2735,0.2735 c 0,0.279 0.1662,0.5296 0.4121,0.6582 0.2459,0.1285 0.5374,0.1285 0.7832,0 0.2459,-0.1286 0.4122,-0.3792 0.4121,-0.6582 a 0.2725715,0.2725715 0 0 0 -0.2714,-0.2735 0.2725715,0.2725715 0 0 0 -0.2735,0.2735 c 0,0.065 -0.036,0.1304 -0.1191,0.1738 -0.083,0.043 -0.1964,0.043 -0.2793,0 -0.083,-0.043 -0.1192,-0.109 -0.1192,-0.1738 a 0.2725715,0.2725715 0 0 0 -0.2714,-0.2735 z"
                   id="path7362-1-7"
                   transform="matrix(0.69291892,0,0,0.68728917,-608.87569,-1839.5359)" />
                <path
                   style="color:#000000;fill:#1a1a1a;stroke-linecap:round;stroke-linejoin:round;-inkscape-stroke:none;paint-order:fill markers stroke"
                   d="m -1375.9609,-656.63477 a 0.1881015,0.1881015 0 0 0 -0.1875,0.1875 v 0.39258 a 0.1881015,0.1881015 0 0 0 0.1875,0.1875 0.1881015,0.1881015 0 0 0 0.1875,-0.1875 v -0.39258 a 0.1881015,0.1881015 0 0 0 -0.1875,-0.1875 z"
                   id="path7364-3-2" />
                <path
                   style="color:#000000;fill:#1a1a1a;stroke-linecap:round;stroke-linejoin:round;-inkscape-stroke:none;paint-order:fill markers stroke"
                   d="m -1373.5645,-656.63477 a 0.1881015,0.1881015 0 0 0 -0.1875,0.1875 v 0.39258 a 0.1881015,0.1881015 0 0 0 0.1875,0.1875 0.1881015,0.1881015 0 0 0 0.1895,-0.1875 v -0.39258 a 0.1881015,0.1881015 0 0 0 -0.1895,-0.1875 z"
                   id="path7366-8-0" />
              </g>
            </g>
          </g>
        </g>
      </g>
    </g>
  </g>
</svg>
