<?xml version="1.0" encoding="UTF-8" standalone="no"?>
<!-- Created with Inkscape (http://www.inkscape.org/) -->

<svg
   width="200"
   height="200"
   viewBox="0 0 200 200"
   version="1.1"
   id="svg5"
   sodipodi:docname="github profile pic_oculos.svg"
   inkscape:version="1.2.2 (732a01da63, 2022-12-09)"
   xmlns:inkscape="http://www.inkscape.org/namespaces/inkscape"
   xmlns:sodipodi="http://sodipodi.sourceforge.net/DTD/sodipodi-0.dtd"
   xmlns="http://www.w3.org/2000/svg"
   xmlns:svg="http://www.w3.org/2000/svg">
  <sodipodi:namedview
     id="namedview160"
     pagecolor="#ffffff"
     bordercolor="#000000"
     borderopacity="0.25"
     inkscape:showpageshadow="2"
     inkscape:pageopacity="0.0"
     inkscape:pagecheckerboard="0"
     inkscape:deskcolor="#d1d1d1"
     showgrid="false"
     inkscape:zoom="2.585"
     inkscape:cx="169.6325"
     inkscape:cy="78.143133"
     inkscape:window-width="1366"
     inkscape:window-height="697"
     inkscape:window-x="-8"
     inkscape:window-y="-8"
     inkscape:window-maximized="1"
     inkscape:current-layer="svg5" />
  <defs
     id="defs2" />
  <g
     id="layer1"
     transform="translate(3077.0759,-98.922555)">
    <g
       id="g7647"
       transform="matrix(3.7795276,0,0,3.7795276,1403.6125,-1608.3126)">
      <g
         id="g11535"
         transform="translate(-165.36177)">
        <rect
           y="451.70596"
           x="-1020.1537"
           height="52.916668"
           width="52.916668"
           id="rect11517"
           style="fill:#ff676a;stroke-width:2.42812;stroke-linecap:square;-inkscape-stroke:none;paint-order:fill markers stroke"
           rx="6.8791666"
           ry="6.8791666" />
        <g
           transform="matrix(0.66698402,0.17871783,-0.17871783,0.66698402,-1985.558,165.7928)"
           id="g7450-2-5">
          <g
             id="g7436-3-6">
            <g
               id="g7428-9-9">
              <path
                 style="color:#000000;fill:#1a1a1a;stroke-linecap:square;-inkscape-stroke:none;paint-order:fill markers stroke"
                 d="m 1547.4395,52.140625 v 2.515625 h 1.2578 6.4531 v 1.248047 1.259765 h 2.5176 v -1.259765 -1.50586 c 0,-1.232481 -1.0273,-2.257812 -2.2598,-2.257812 h -6.7109 z"
                 id="path7424-8-7"
                 transform="translate(-27.525137,11.677455)" />
              <path
                 style="color:#000000;fill:#1a1a1a;stroke-linecap:square;-inkscape-stroke:none;paint-order:fill markers stroke"
                 d="m 1482.3613,63.816406 c -1.2325,0 -2.2578,1.027281 -2.2578,2.259766 v 1.505859 1.259766 h 2.5156 v -1.259766 -1.248047 h 6.4532 1.2597 v -2.517578 h -1.2597 z"
                 id="path7426-9-7" />
            </g>
            <g
               id="path7430-0-6">
              <path
                 style="color:#000000;fill:#0097e8;stroke-width:2.5173;stroke-linecap:square;-inkscape-stroke:none;paint-order:fill markers stroke"
                 d="m 1501.7542,65.070196 h 6.1515"
                 id="path794" />
              <path
                 style="color:#000000;fill:#1a1a1a;stroke-linecap:square;-inkscape-stroke:none;paint-order:fill markers stroke"
                 d="m 1500.4961,63.8125 v 2.515625 h 1.2578 6.1524 1.2578 V 63.8125 h -1.2578 -6.1524 z"
                 id="path796" />
            </g>
            <g
               id="circle7432-8-5">
              <path
                 style="color:#000000;fill:#0097e8;stroke-width:2.5173;stroke-linecap:square;-inkscape-stroke:none;paint-order:fill markers stroke"
                 d="m 1502.6932,65.070236 a 7.7003074,7.7003074 0 0 1 -7.7003,7.700308 7.7003074,7.7003074 0 0 1 -7.7003,-7.700308 7.7003074,7.7003074 0 0 1 7.7003,-7.700307 7.7003074,7.7003074 0 0 1 7.7003,7.700307 z"
                 id="path800" />
              <path
                 style="color:#000000;fill:#1a1a1a;stroke-linecap:square;-inkscape-stroke:none;paint-order:fill markers stroke"
                 d="m 1494.9922,56.111328 c -4.933,0 -8.959,4.026002 -8.959,8.958984 0,4.932983 4.026,8.958985 8.959,8.958985 4.933,0 8.959,-4.026002 8.959,-8.958985 0,-4.932982 -4.026,-8.958984 -8.959,-8.958984 z m 0,2.517578 c 3.5725,0 6.4433,2.868873 6.4433,6.441406 0,3.572534 -2.8708,6.441407 -6.4433,6.441407 -3.5725,0 -6.4414,-2.868873 -6.4414,-6.441407 0,-3.572533 2.8689,-6.441406 6.4414,-6.441406 z"
                 id="path802" />
            </g>
            <g
               id="circle7434-9-7">
              <path
                 style="color:#000000;fill:#0097e8;stroke-width:2.5173;stroke-linecap:square;-inkscape-stroke:none;paint-order:fill markers stroke"
                 d="m 1522.7114,65.070236 a 7.7003074,7.7003074 0 0 1 -7.7003,7.700308 7.7003074,7.7003074 0 0 1 -7.7003,-7.700308 7.7003074,7.7003074 0 0 1 7.7003,-7.700307 7.7003074,7.7003074 0 0 1 7.7003,7.700307 z"
                 id="path806" />
              <path
                 style="color:#000000;fill:#1a1a1a;stroke-linecap:square;-inkscape-stroke:none;paint-order:fill markers stroke"
                 d="m 1515.0117,56.111328 c -4.933,0 -8.959,4.026002 -8.959,8.958984 0,4.932983 4.026,8.958985 8.959,8.958985 4.933,0 8.959,-4.026002 8.959,-8.958985 0,-4.932982 -4.026,-8.958984 -8.959,-8.958984 z m 0,2.517578 c 3.5726,0 6.4414,2.868873 6.4414,6.441406 0,3.572534 -2.8688,6.441407 -6.4414,6.441407 -3.5725,0 -6.4414,-2.868873 -6.4414,-6.441407 0,-3.572533 2.8689,-6.441406 6.4414,-6.441406 z"
                 id="path808" />
            </g>
          </g>
          <g
             id="g7442-7-5">
            <path
               style="color:#000000;fill:#1a1a1a;stroke-linecap:round;stroke-linejoin:round;-inkscape-stroke:none;paint-order:fill markers stroke"
               d="m 1495.3438,59.369141 a 0.85328001,0.85328001 0 0 0 -0.6016,0.25 0.85328001,0.85328001 0 0 0 0,1.207031 l 4.7207,4.722656 a 0.85328001,0.85328001 0 0 0 1.207,0 0.85328001,0.85328001 0 0 0 0,-1.207031 l -4.7226,-4.722656 a 0.85328001,0.85328001 0 0 0 -0.6035,-0.25 z"
               id="path7438-0-4" />
            <path
               style="color:#000000;fill:#1a1a1a;stroke-linecap:round;stroke-linejoin:round;-inkscape-stroke:none;paint-order:fill markers stroke"
               d="m 1492.2266,61.654297 a 0.85328001,0.85328001 0 0 0 0,1.207031 l 2.4824,2.482422 a 0.85328001,0.85328001 0 0 0 1.207,0 0.85328001,0.85328001 0 0 0 0,-1.207031 l -2.4824,-2.482422 a 0.85328001,0.85328001 0 0 0 -1.207,0 z"
               id="path7440-6-1" />
          </g>
          <g
             transform="translate(19.571506,0.40649568)"
             id="g7448-8-2">
            <path
               style="color:#000000;fill:#1a1a1a;stroke-linecap:round;stroke-linejoin:round;-inkscape-stroke:none;paint-order:fill markers stroke"
               d="m 1495.3438,59.369141 a 0.85328001,0.85328001 0 0 0 -0.6016,0.25 0.85328001,0.85328001 0 0 0 0,1.207031 l 4.7207,4.722656 a 0.85328001,0.85328001 0 0 0 1.207,0 0.85328001,0.85328001 0 0 0 0,-1.207031 l -4.7226,-4.722656 a 0.85328001,0.85328001 0 0 0 -0.6035,-0.25 z"
               id="path7444-2-5" />
            <path
               style="color:#000000;fill:#1a1a1a;stroke-linecap:round;stroke-linejoin:round;-inkscape-stroke:none;paint-order:fill markers stroke"
               d="m 1492.2266,61.654297 a 0.85328001,0.85328001 0 0 0 0,1.207031 l 2.4824,2.482422 a 0.85328001,0.85328001 0 0 0 1.207,0 0.85328001,0.85328001 0 0 0 0,-1.207031 l -2.4824,-2.482422 a 0.85328001,0.85328001 0 0 0 -1.207,0 z"
               id="path7446-0-6" />
          </g>
        </g>
      </g>
    </g>
  </g>
</svg>
