<?xml version="1.0" encoding="UTF-8" standalone="no"?>
<!-- Created with Inkscape (http://www.inkscape.org/) -->

<svg
   width="200"
   height="200"
   viewBox="0 0 200 200"
   version="1.1"
   id="svg5"
   sodipodi:docname="github profile pic_smartphone.svg"
   inkscape:version="1.2.2 (732a01da63, 2022-12-09)"
   xmlns:inkscape="http://www.inkscape.org/namespaces/inkscape"
   xmlns:sodipodi="http://sodipodi.sourceforge.net/DTD/sodipodi-0.dtd"
   xmlns="http://www.w3.org/2000/svg"
   xmlns:svg="http://www.w3.org/2000/svg">
  <sodipodi:namedview
     id="namedview293"
     pagecolor="#ffffff"
     bordercolor="#000000"
     borderopacity="0.25"
     inkscape:showpageshadow="2"
     inkscape:pageopacity="0.0"
     inkscape:pagecheckerboard="0"
     inkscape:deskcolor="#d1d1d1"
     showgrid="false"
     inkscape:zoom="2.585"
     inkscape:cx="86.460348"
     inkscape:cy="139.26499"
     inkscape:window-width="1366"
     inkscape:window-height="697"
     inkscape:window-x="-8"
     inkscape:window-y="-8"
     inkscape:window-maximized="1"
     inkscape:current-layer="svg5" />
  <defs
     id="defs2" />
  <g
     id="layer1"
     transform="translate(3370.5878,-98.922555)">
    <g
       id="g7647"
       transform="matrix(3.7795276,0,0,3.7795276,1403.6125,-1608.3126)">
      <g
         id="g11449"
         transform="translate(-243.02013)">
        <path
           id="rect11340"
           style="fill:#9958e6;stroke-width:2.04183;stroke-linecap:square;paint-order:fill markers stroke"
           d="m -1013.2745,451.70596 h 39.15831 c 3.81106,0 6.87917,3.06811 6.87917,6.87917 v 39.15833 c 0,3.81106 -3.06811,6.87917 -6.87917,6.87917 h -39.15831 c -3.8111,0 -6.8792,-3.06811 -6.8792,-6.87917 v -39.15833 c 0,-3.81106 3.0681,-6.87917 6.8792,-6.87917 z" />
        <g
           transform="matrix(0.59800151,-0.34525633,0.34525633,0.59800151,-2004.3416,940.78499)"
           id="g7490-7-9">
          <g
             id="rect7476-8-0">
            <path
               style="color:#000000;fill:#ffffff;stroke-width:2.51732;stroke-linecap:square;-inkscape-stroke:none;paint-order:fill markers stroke"
               d="m 1598.7134,141.01689 h 7.5997 c 1.2662,0 2.2856,1.01936 2.2856,2.28556 V 159.898 c 0,1.2662 -1.0194,2.28556 -2.2856,2.28556 h -7.5997 c -1.2662,0 -2.2855,-1.01936 -2.2855,-2.28556 v -16.59555 c 0,-1.2662 1.0193,-2.28556 2.2855,-2.28556 z"
               id="path729" />
            <path
               style="color:#000000;fill:#1a1a1a;stroke-linecap:square;-inkscape-stroke:none;paint-order:fill markers stroke"
               d="m 1598.7129,139.75781 c -1.9417,0 -3.543,1.60324 -3.543,3.54492 v 16.59571 c 0,1.94168 1.6013,3.54297 3.543,3.54297 h 7.5996 c 1.9417,0 3.5449,-1.60122 3.5449,-3.54297 v -16.59571 c 0,-1.94175 -1.6032,-3.54492 -3.5449,-3.54492 z m 0,2.51758 h 7.5996 c 0.5907,0 1.0273,0.4367 1.0273,1.02734 v 16.59571 c 0,0.59064 -0.4366,1.02734 -1.0273,1.02734 h -7.5996 c -0.5907,0 -1.0254,-0.43663 -1.0254,-1.02734 v -16.59571 c 0,-0.59071 0.4347,-1.02734 1.0254,-1.02734 z"
               id="path731" />
          </g>
          <g
             id="rect7478-1-6">
            <path
               style="color:#000000;fill:#1a1a1a;stroke-width:1.70655;stroke-linecap:round;stroke-linejoin:round;-inkscape-stroke:none;paint-order:fill markers stroke"
               d="m 1596.428,144.93811 h 12.1705 c 10e-5,0 10e-5,5e-5 10e-5,1.1e-4 v 12.17061 c 0,6e-5 0,1.1e-4 -10e-5,1.1e-4 h -12.1705 c -1e-4,0 -1e-4,-5e-5 -1e-4,-1.1e-4 v -12.17061 c 0,-6e-5 0,-1.1e-4 1e-4,-1.1e-4 z"
               id="path735" />
            <path
               style="color:#000000;fill:#1a1a1a;stroke-linecap:round;stroke-linejoin:round;-inkscape-stroke:none;paint-order:fill markers stroke"
               d="m 1596.4441,144.78933 -0.016,0.14817 -0.8535,12.17187 h 0.8535 l 12.1313,0.25352 0.039,-0.25352 0.8535,-12.17187 h -0.8535 z m 0.7766,1.00169 11.3164,0 -0.7871,11.25976 -11.2637,-0.79101 z"
               id="path737"
               sodipodi:nodetypes="cccccccccccccc" />
          </g>
          <g
             id="path7480-3-5">
            <path
               style="color:#000000;fill:#ffffff;stroke-width:1.70656;stroke-linecap:round;stroke-linejoin:round;-inkscape-stroke:none;paint-order:fill markers stroke"
               d="m 1601.6401,159.44548 h 1.7463"
               id="path741" />
            <path
               style="color:#000000;fill:#1a1a1a;stroke-linecap:round;stroke-linejoin:round;-inkscape-stroke:none;paint-order:fill markers stroke"
               d="m 1601.6406,158.5918 a 0.85328001,0.85328001 0 0 0 -0.8535,0.85351 0.85328001,0.85328001 0 0 0 0.8535,0.85352 h 1.7461 a 0.85328001,0.85328001 0 0 0 0.8535,-0.85352 0.85328001,0.85328001 0 0 0 -0.8535,-0.85351 z"
               id="path743" />
          </g>
          <g
             id="g7488-3-5"
             transform="translate(-1.6681909,3.8055605)">
            <g
               id="g7486-5-8"
               transform="translate(1.5875,-1.5875)">
              <g
                 id="path7482-6-2">
                <path
                   style="color:#000000;fill:#ffffff;stroke-width:1.70656;stroke-linecap:round;stroke-linejoin:round;-inkscape-stroke:none;paint-order:fill markers stroke"
                   d="m 1601.1315,147.33286 3.7534,3.75364"
                   id="path747" />
                <path
                   style="color:#000000;fill:#ffffff;stroke-linecap:round;stroke-linejoin:round;-inkscape-stroke:none;paint-order:fill markers stroke"
                   d="m 1601.1309,146.48047 a 0.85328001,0.85328001 0 0 0 -0.6036,0.24805 0.85328001,0.85328001 0 0 0 0,1.20703 l 3.754,3.7539 a 0.85328001,0.85328001 0 0 0 1.207,0 0.85328001,0.85328001 0 0 0 0,-1.20703 l -3.7539,-3.75195 a 0.85328001,0.85328001 0 0 0 -0.6035,-0.25 z"
                   id="path749" />
              </g>
              <g
                 id="path7484-8-2">
                <path
                   style="color:#000000;fill:#ffffff;stroke-width:1.70656;stroke-linecap:round;stroke-linejoin:round;-inkscape-stroke:none;paint-order:fill markers stroke"
                   d="m 1603.2483,145.21618 1.5639,1.56398"
                   id="path753" />
                <path
                   style="color:#000000;fill:#ffffff;stroke-linecap:round;stroke-linejoin:round;-inkscape-stroke:none;paint-order:fill markers stroke"
                   d="m 1602.6445,144.61328 a 0.85328001,0.85328001 0 0 0 0,1.20703 l 1.5645,1.5625 a 0.85328001,0.85328001 0 0 0 1.207,0 0.85328001,0.85328001 0 0 0 0,-1.20508 l -1.5644,-1.56445 a 0.85328001,0.85328001 0 0 0 -1.2071,0 z"
                   id="path755" />
              </g>
            </g>
          </g>
        </g>
      </g>
    </g>
  </g>
</svg>
